<svg width="48" height="22" viewBox="0 0 48 22" fill="none" xmlns="http://www.w3.org/2000/svg">
<g filter="url(#filter0_d_1177_77)">
<path fill-rule="evenodd" clip-rule="evenodd" d="M42.8415 7.00967C42.8379 7.01877 42.8343 7.02788 42.8309 7.03714C42.8275 7.04674 42.8248 7.05675 42.8221 7.06674C42.8177 7.08298 42.8133 7.09915 42.8059 7.11334C42.7911 7.14142 42.7718 7.165 42.7524 7.18866C42.7469 7.1954 42.7413 7.20215 42.7359 7.20901C42.7298 7.21619 42.7245 7.22405 42.7191 7.23192C42.7117 7.24289 42.7042 7.25385 42.6949 7.26287C42.6669 7.28907 42.6345 7.30729 42.6023 7.32544C42.6 7.32674 42.5977 7.32803 42.5954 7.32932C42.5886 7.33311 42.5821 7.33788 42.5756 7.34265C42.5664 7.34943 42.5572 7.35623 42.5469 7.36026C42.4929 7.38318 42.4354 7.39578 42.3759 7.39578C42.3489 7.39578 42.3209 7.39349 42.2934 7.38776L40.1684 6.98386C39.8959 6.9323 39.7119 6.63725 39.7569 6.32501C39.8019 6.01335 40.0589 5.79965 40.3319 5.85408L41.1539 6.00991C40.5314 4.75753 39.3429 3.95832 38.0349 3.95832C36.5553 3.95832 35.2518 4.94258 34.7133 6.4648C34.6348 6.68824 34.4473 6.82287 34.2498 6.82287C34.1873 6.82287 34.1238 6.8097 34.0623 6.78105C33.8063 6.66246 33.6828 6.32845 33.7868 6.03512C34.4788 4.07749 36.1463 2.8125 38.0349 2.8125C39.7409 2.8125 41.2914 3.88384 42.0739 5.55559L42.2584 4.42524C42.3094 4.11473 42.5714 3.90905 42.8419 3.96863C43.1134 4.0265 43.2924 4.32613 43.2414 4.63722L42.8669 6.92886C42.8621 6.95808 42.8518 6.98386 42.8415 7.00967ZM41.2868 9.47269C41.3903 9.17879 41.6823 9.03785 41.9378 9.15645C42.1938 9.27504 42.3173 9.60904 42.2133 9.90237C41.5213 11.86 39.8537 13.125 37.9652 13.125C36.2592 13.125 34.7087 12.0537 33.9262 10.3819L33.7412 11.5117C33.6967 11.7872 33.4867 11.9792 33.2502 11.9792C33.2197 11.9792 33.1887 11.9757 33.1577 11.9689C32.8862 11.911 32.7077 11.6114 32.7587 11.3003L33.1332 9.00863C33.137 8.98613 33.1454 8.96616 33.1539 8.9461C33.1588 8.93449 33.1637 8.92285 33.1677 8.91067C33.1717 8.89925 33.1751 8.88744 33.1786 8.8756C33.186 8.85001 33.1936 8.82432 33.2062 8.80239C33.2136 8.78935 33.2232 8.77892 33.2329 8.76842C33.239 8.76184 33.2451 8.75524 33.2507 8.74796C33.2551 8.74212 33.2595 8.73624 33.2638 8.73036C33.2876 8.69822 33.3112 8.66637 33.3412 8.64312C33.3441 8.64066 33.3477 8.63919 33.3512 8.63774C33.3542 8.63648 33.3571 8.63524 33.3597 8.63338C33.4082 8.59729 33.4602 8.56921 33.5177 8.55489C33.5212 8.55396 33.5249 8.5542 33.5285 8.55444C33.5316 8.55464 33.5347 8.55485 33.5377 8.55432C33.5927 8.544 33.6482 8.5377 33.7067 8.54916L35.8317 8.95364C36.1042 9.00462 36.2882 9.30025 36.2432 9.61248C36.2027 9.89264 35.9907 10.0914 35.7502 10.0914C35.7232 10.0914 35.6957 10.0891 35.6682 10.0834L34.8462 9.92758C35.4687 11.18 36.6572 11.9792 37.9652 11.9792C39.4447 11.9792 40.7483 10.9949 41.2868 9.47269Z" fill="black"/>
</g>
<circle cx="20.5" cy="7.5" r="5.5" fill="#34A853"/>
<ellipse cx="5" cy="7.5" rx="5" ry="5.5" fill="#D12223"/>
<defs>
<filter id="filter0_d_1177_77" x="27" y="0" width="22" height="23" filterUnits="userSpaceOnUse" color-interpolation-filters="sRGB">
<feFlood flood-opacity="0" result="BackgroundImageFix"/>
<feColorMatrix in="SourceAlpha" type="matrix" values="0 0 0 0 0 0 0 0 0 0 0 0 0 0 0 0 0 0 127 0" result="hardAlpha"/>
<feOffset dy="4"/>
<feGaussianBlur stdDeviation="2"/>
<feComposite in2="hardAlpha" operator="out"/>
<feColorMatrix type="matrix" values="0 0 0 0 0 0 0 0 0 0 0 0 0 0 0 0 0 0 0.25 0"/>
<feBlend mode="normal" in2="BackgroundImageFix" result="effect1_dropShadow_1177_77"/>
<feBlend mode="normal" in="SourceGraphic" in2="effect1_dropShadow_1177_77" result="shape"/>
</filter>
</defs>
</svg>
