<svg width="32" height="32" viewBox="0 0 32 32" fill="none" xmlns="http://www.w3.org/2000/svg">
<g clip-path="url(#clip0_34_1406)" filter="url(#filter0_d_34_1406)">
<g clip-path="url(#clip1_34_1406)">
<path d="M24 6H21.82C21.93 5.69 22 5.35 22 5C22 3.34 20.66 2 19 2C17.95 2 17.04 2.54 16.5 3.35L16 4.02L15.5 3.34C14.96 2.54 14.05 2 13 2C11.34 2 10 3.34 10 5C10 5.35 10.07 5.69 10.18 6H8C6.89 6 6.01 6.89 6.01 8L6 19C6 20.11 6.89 21 8 21H24C25.11 21 26 20.11 26 19V8C26 6.89 25.11 6 24 6ZM19 4C19.55 4 20 4.45 20 5C20 5.55 19.55 6 19 6C18.45 6 18 5.55 18 5C18 4.45 18.45 4 19 4ZM13 4C13.55 4 14 4.45 14 5C14 5.55 13.55 6 13 6C12.45 6 12 5.55 12 5C12 4.45 12.45 4 13 4ZM24 19H8V17H24V19ZM24 14H8V8H13.08L11 10.83L12.62 12L15 8.76L16 7.4L17 8.76L19.38 12L21 10.83L18.92 8H24V14Z" fill="black"/>
</g>
</g>
<defs>
<filter id="filter0_d_34_1406" x="0" y="0" width="32" height="32" filterUnits="userSpaceOnUse" color-interpolation-filters="sRGB">
<feFlood flood-opacity="0" result="BackgroundImageFix"/>
<feColorMatrix in="SourceAlpha" type="matrix" values="0 0 0 0 0 0 0 0 0 0 0 0 0 0 0 0 0 0 127 0" result="hardAlpha"/>
<feOffset dy="4"/>
<feGaussianBlur stdDeviation="2"/>
<feComposite in2="hardAlpha" operator="out"/>
<feColorMatrix type="matrix" values="0 0 0 0 0 0 0 0 0 0 0 0 0 0 0 0 0 0 0.25 0"/>
<feBlend mode="normal" in2="BackgroundImageFix" result="effect1_dropShadow_34_1406"/>
<feBlend mode="normal" in="SourceGraphic" in2="effect1_dropShadow_34_1406" result="shape"/>
</filter>
<clipPath id="clip0_34_1406">
<rect width="24" height="24" fill="white" transform="translate(4)"/>
</clipPath>
<clipPath id="clip1_34_1406">
<rect width="24" height="24" fill="white" transform="translate(4)"/>
</clipPath>
</defs>
</svg>
